<svg xmlns="http://www.w3.org/2000/svg" width="20" height="20" viewBox="0 0 496 512">
<path fill="#000" d="M165.9 397.4c0 2-2.3 3.6-5.2 3.6-3.3.3-5.6-1.3-5.6-3.6 0-2 2.3-3.6 5.2-3.6 3.3-.3 5.6 1.3 5.6 3.6zm-32.3-4c-.7 2 1.3 4.3 4.3 4.6 2.6 1 5.6.3 6.3-1.6.7-2-1.3-4.3-4.3-4.6-2.6-1-5.6-.3-6.3 1.6zm44.5-2c-2.9.7-4.9 2.9-4.3 5.2.3 2.3 2.9 3.6 5.9 3 2.9-.7 4.9-2.9 4.6-5.2-.6-2.3-3.2-3.6-6.2-3zM248 8C111 8 0 119 0 256c0 111.8 72.2 206.3 172.4 240 12.7 2.3 17.4-5.6 17.4-12.3v-43.6c-70.1 15.3-84.8-30-84.8-30-11.3-28.9-27.6-36.6-27.6-36.6-22.6-15.6 1.6-15.3 1.6-15.3 25 1.6 38.2 25.6 38.2 25.6 22.3 38.6 58.9 27.6 73.3 21 2.3-16.3 8.6-27.6 15.6-34.3-55.9-6.3-114.8-27.6-114.8-122.4 0-27.6 9.8-50.2 26-67.8-2.6-6.6-11.3-33.3 2.6-69.1 0 0 21.3-6.9 70.1 26 20.4-5.6 42.5-8.6 64.5-8.6 22.3 0 44.5 3 64.8 8.6 48.8-33 70.1-26 70.1-26 13.9 35.6 5.2 62.2 2.6 68.8 16.3 17.6 26 40.2 26 67.8 0 95.2-58.9 116.1-115.1 122.7 8.9 7.6 17.6 22.9 17.6 46.9v69.5c0 7 4.6 14.6 17.6 12.3C423.8 462.3 496 367.8 496 256 496 119 385 8 248 8z"></path>
</svg>
