<svg xmlns="http://www.w3.org/2000/svg" width="20" height="20" viewBox="0 0 488 512">
<path fill="#EA4335" d="M488 261.8c0-17.4-1.4-34.1-4.1-50.4H249.2v95.4h134c-5.8 31.3-23.3 57.7-49.6 75.4l80 62.1c46.7-43.1 74.4-106.7 74.4-182.5z"></path>
<path fill="#34A853" d="M249.2 492c67.3 0 123.8-22.3 165.1-60.1l-80-62.1c-22.3 15-50.8 23.8-85.1 23.8-65.6 0-121.2-44.2-141.1-103.4l-82.5 64C59 431.5 146.6 492 249.2 492z"></path>
<path fill="#4A90E2" d="M108.1 290.2c-4.8-14.5-7.6-29.9-7.6-45.8s2.8-31.3 7.6-45.8l-82.5-64C9.4 172 0 209.4 0 248.4c0 39.1 9.4 76.5 25.6 109.8l82.5-64z"></path>
<path fill="#FBBC05" d="M249.2 103c37 0 70.1 12.8 96.3 37.7l72.3-72.3C373 24.4 316.5 0 249.2 0 146.6 0 59 60.5 25.6 138.6l82.5 64C128 147.2 183.7 103 249.2 103z"></path>
</svg>
